<svg width="349" height="141" viewBox="0 0 349 141" fill="none" xmlns="http://www.w3.org/2000/svg">
<path d="M1.5 96L9.8 10.1H38.9L47.1 96H30.8L29.6 82.1H19.2L18.2 96H1.5ZM20.5 68.4H28.3L24.5 24.7H23.7L20.5 68.4ZM52.3352 10.1H75.6352C81.9018 10.1 86.4352 11.6333 89.2352 14.7C92.1018 17.7667 93.5352 22.7667 93.5352 29.7V33.5C93.5352 41.7 90.6018 46.6 84.7352 48.2C88.3352 49.1333 90.8685 51.3 92.3352 54.7C93.8018 58.1 94.5352 62.6 94.5352 68.2C94.5352 77.3333 93.1685 84.2667 90.4352 89C87.7018 93.6667 82.7685 96 75.6352 96H52.3352V10.1ZM72.6352 42.4C74.1018 42.4 75.1018 41.8667 75.6352 40.8C76.1685 39.6667 76.4352 38.1 76.4352 36.1V27.5C76.4352 24.7 75.2018 23.3 72.7352 23.3H69.1352V42.4H72.6352ZM70.8352 80.9C75.3018 80.9 77.5352 78.7667 77.5352 74.5V63.8C77.5352 61.2 77.1352 59.2333 76.3352 57.9C75.6018 56.5667 74.2685 55.9 72.3352 55.9H69.1352V80.8L70.8352 80.9ZM120.687 96.8C113.753 96.8 108.487 94.7 104.887 90.5C101.287 86.2333 99.4867 80.2667 99.4867 72.6V31.7C99.4867 24.3 101.287 18.7333 104.887 15C108.487 11.2 113.753 9.3 120.687 9.3C127.62 9.3 132.887 11.2 136.487 15C140.087 18.7333 141.887 24.3 141.887 31.7V72.6C141.887 80.3333 140.087 86.3 136.487 90.5C132.887 94.7 127.62 96.8 120.687 96.8ZM120.687 81C122.22 81 123.253 80.3333 123.787 79C124.32 77.6667 124.587 75.8 124.587 73.4V31.4C124.587 29.5333 124.32 28.0333 123.787 26.9C123.32 25.7 122.32 25.1 120.787 25.1C117.92 25.1 116.487 27.2667 116.487 31.6V73.5C116.487 75.9667 116.787 77.8333 117.387 79.1C117.987 80.3667 119.087 81 120.687 81ZM168.72 96.8C161.653 96.8 156.386 94.8 152.92 90.8C149.52 86.8 147.82 80.8667 147.82 73V10.1H164.52V72.3C164.52 75.0333 164.786 77.1667 165.32 78.7C165.853 80.2333 166.986 81 168.72 81C170.453 81 171.586 80.2667 172.12 78.8C172.653 77.2667 172.92 75.1 172.92 72.3V10.1H189.62V73C189.62 80.8667 187.886 86.8 184.42 90.8C181.02 94.8 175.786 96.8 168.72 96.8ZM203.583 96V26.6H193.383V10.1H230.983V26.6H220.783V96H203.583ZM279.169 96.8C272.102 96.8 266.835 94.8 263.369 90.8C259.969 86.8 258.269 80.8667 258.269 73V10.1H274.969V72.3C274.969 75.0333 275.235 77.1667 275.769 78.7C276.302 80.2333 277.435 81 279.169 81C280.902 81 282.035 80.2667 282.569 78.8C283.102 77.2667 283.369 75.1 283.369 72.3V10.1H300.069V73C300.069 80.8667 298.335 86.8 294.869 90.8C291.469 94.8 286.235 96.8 279.169 96.8ZM327.032 96.8C319.232 96.8 313.599 94.8667 310.132 91C306.665 87.1333 304.932 80.9 304.932 72.3V63.9H321.832V74.6C321.832 78.8667 323.199 81 325.932 81C327.465 81 328.532 80.5667 329.132 79.7C329.732 78.7667 330.032 77.2333 330.032 75.1C330.032 72.3 329.699 70 329.032 68.2C328.365 66.3333 327.499 64.8 326.432 63.6C325.432 62.3333 323.599 60.4 320.932 57.8L313.532 50.4C307.799 44.8 304.932 38.6 304.932 31.8C304.932 24.4667 306.599 18.9 309.932 15.1C313.332 11.2333 318.265 9.3 324.732 9.3C332.465 9.3 338.032 11.3667 341.432 15.5C344.832 19.5667 346.532 25.9667 346.532 34.7H329.032L328.932 28.8C328.932 27.6667 328.599 26.7667 327.932 26.1C327.332 25.4333 326.465 25.1 325.332 25.1C323.999 25.1 322.999 25.4667 322.332 26.2C321.665 26.9333 321.332 27.9333 321.332 29.2C321.332 32 322.932 34.9 326.132 37.9L336.132 47.5C338.465 49.7667 340.399 51.9333 341.932 54C343.465 56 344.699 58.4 345.632 61.2C346.565 63.9333 347.032 67.2 347.032 71C347.032 79.4667 345.465 85.9 342.332 90.3C339.265 94.6333 334.165 96.8 327.032 96.8Z" fill="#734C36"/>
<rect x="51" y="125" width="88" height="13" fill="#A64F3C"/>
<rect x="211" y="125" width="88" height="13" fill="#A64F3C"/>
<path d="M153.34 132L162 140.66L170.66 132L162 123.34L153.34 132ZM196.66 132L188 123.34L179.34 132L188 140.66L196.66 132ZM162 133.5H188V130.5H162V133.5Z" fill="#734C36"/>
</svg>
