<svg width="248" height="159" viewBox="0 0 248 159" fill="none" xmlns="http://www.w3.org/2000/svg">
<path d="M77.1 114.1C74.5667 114.567 73.1333 114.8 72.8 114.8C65.8667 114.8 60.6 112.833 57 108.9C53.4 104.9 51.6 99.0667 51.6 91.4V49.9C51.6 42.5 53.4 36.9 57 33.1C60.6667 29.2333 65.9333 27.3 72.8 27.3C79.6667 27.3 84.9 29.2333 88.5 33.1C92.1667 36.9 94 42.5 94 49.9V91.4C94 98.4667 92.4 104.067 89.2 108.2L96.6 112.9L90.8 123.1L77.1 114.1ZM72.8 99C74.4667 99 75.5333 98.2 76 96.6C76.4667 95 76.7 92.9333 76.7 90.4V50.2C76.7 48 76.4 46.2667 75.8 45C75.2667 43.7333 74.2333 43.1 72.7 43.1C69.9667 43.1 68.6 45.4333 68.6 50.1V90.7C68.6 93.1 68.8667 95.1 69.4 96.7C69.9333 98.2333 71.0667 99 72.8 99ZM115.814 115C110.681 115 106.781 113.167 104.114 109.5C101.447 105.833 100.114 101.067 100.114 95.2C100.114 88.6667 101.047 83.4333 102.914 79.5C104.781 75.5 107.714 72 111.714 69C108.447 62.6 106.814 57.0667 106.814 52.4C106.814 47.5333 108.381 43.7333 111.514 41C114.714 38.2 118.814 36.8 123.814 36.8C128.747 36.8 132.781 38.1333 135.914 40.8C139.114 43.4 140.714 47.0667 140.714 51.8C140.714 58.7333 136.881 65.2333 129.214 71.3L132.314 78.6C134.181 73.6667 136.981 69.8333 140.714 67.1L147.514 77.7C143.581 80.7667 140.381 85.8333 137.914 92.9L146.614 114H130.014L128.214 109.3C126.814 110.967 125.014 112.333 122.814 113.4C120.681 114.467 118.347 115 115.814 115ZM125.614 58.9C126.281 58.1667 126.881 57.1333 127.414 55.8C127.947 54.4 128.214 53.0667 128.214 51.8C128.214 49.8 127.247 48.8 125.314 48.8C124.514 48.8 123.881 49.1 123.414 49.7C122.947 50.2333 122.714 50.9333 122.714 51.8C122.714 53.5333 123.414 56.2 124.814 59.8L125.614 58.9ZM118.514 102.5C119.781 102.5 120.847 102.033 121.714 101.1C122.581 100.1 123.147 98.9667 123.414 97.7L117.514 83.5L116.914 84.4C116.381 85.2 115.947 86.4667 115.614 88.2C115.281 89.9333 115.114 91.6333 115.114 93.3V93.8C115.114 96.4 115.314 98.5 115.714 100.1C116.114 101.7 117.047 102.5 118.514 102.5ZM150.402 114L158.702 28.1H187.802L196.002 114H179.702L178.502 100.1H168.102L167.102 114H150.402ZM169.402 86.4H177.202L173.402 42.7H172.602L169.402 86.4Z" fill="#734C36"/>
<rect y="143" width="88" height="13" fill="#A64F3C"/>
<rect x="160" y="143" width="88" height="13" fill="#A64F3C"/>
<path d="M102.34 150L111 158.66L119.66 150L111 141.34L102.34 150ZM145.66 150L137 141.34L128.34 150L137 158.66L145.66 150ZM111 151.5H137V148.5H111V151.5Z" fill="#734C36"/>
</svg>
