<svg width="248" height="36" viewBox="0 0 248 36" fill="none" xmlns="http://www.w3.org/2000/svg">
<path d="M0.552399 35V2.358H13.6244V8.704H7.1264V13.91H13.2824V20.18H7.1264V35H0.552399ZM15.5781 5.322V0.685998H22.2281V5.322H15.5781ZM15.5781 35V7.184H22.2281V35H15.5781ZM24.8564 35V2.168H31.6204V35H24.8564ZM34.2821 7.184H40.7801V10.414C41.0841 9.22333 41.6035 8.33667 42.3381 7.754C43.0728 7.17133 44.1115 6.88 45.4541 6.88C46.5435 6.88 47.4808 7.13333 48.2661 7.64C49.0768 8.12133 49.6468 8.79267 49.9761 9.654C50.5335 8.69133 51.1541 7.99466 51.8381 7.564C52.5221 7.108 53.4722 6.88 54.6881 6.88C56.8668 6.88 58.3742 7.55133 59.2102 8.894C60.0715 10.2113 60.5021 12.1367 60.5021 14.67L60.4262 35H53.7382V14.556C53.7382 12.7573 53.2822 11.858 52.3701 11.858C51.7368 11.858 51.2808 12.1747 51.0021 12.808C50.7235 13.416 50.5841 14.1507 50.5841 15.012V35H43.9341V14.556C43.9341 13.7707 43.8455 13.1373 43.6681 12.656C43.5161 12.1747 43.1741 11.934 42.6421 11.934C41.9581 11.934 41.4768 12.276 41.1981 12.96C40.9195 13.6187 40.7801 14.4167 40.7801 15.354V35H34.2821V7.184ZM63.193 35V2.358H69.729V29.452H76.455V35H63.193ZM83.2365 35.304C81.0832 35.304 79.6012 34.5947 78.7905 33.176C78.0052 31.732 77.6125 29.68 77.6125 27.02C77.6125 24.8413 77.8912 23.1693 78.4485 22.004C79.0312 20.8387 79.8292 19.99 80.8425 19.458C81.8559 18.9007 83.4012 18.2927 85.4785 17.634L87.3025 17.026V16.95V14.176C87.3025 13.4413 87.1505 12.884 86.8465 12.504C86.5679 12.0987 86.2259 11.896 85.8205 11.896C85.4659 11.896 85.1492 12.0607 84.8705 12.39C84.6172 12.7193 84.4905 13.1627 84.4905 13.72V15.392H78.0305V14.48C78.0305 11.744 78.6639 9.79333 79.9305 8.628C81.2225 7.46267 83.3125 6.88 86.2005 6.88C88.5059 6.88 90.3805 7.488 91.8245 8.704C93.2685 9.89467 93.9905 11.592 93.9905 13.796V35H87.3785V31.694C87.0492 32.834 86.5172 33.7207 85.7825 34.354C85.0732 34.9873 84.2245 35.304 83.2365 35.304ZM85.8585 30.136C86.3652 30.136 86.7199 29.9333 86.9225 29.528C87.1505 29.0973 87.2645 28.578 87.2645 27.97V20.218C86.2765 20.598 85.5419 21.0793 85.0605 21.662C84.6045 22.2447 84.3765 23.0553 84.3765 24.094V27.666C84.3765 29.3127 84.8705 30.136 85.8585 30.136ZM107.306 35.304C105.482 35.304 104.177 34.2147 103.392 32.036V35H96.5517V2.168H103.392V8.514C104.456 7.42467 105.697 6.88 107.116 6.88C109.269 6.88 110.814 7.526 111.752 8.818C112.689 10.0847 113.158 11.9213 113.158 14.328V27.742C113.158 30.022 112.676 31.8587 111.714 33.252C110.751 34.62 109.282 35.304 107.306 35.304ZM105.064 30.136C105.52 30.136 105.836 29.9967 106.014 29.718C106.216 29.414 106.33 29.0467 106.356 28.616C106.406 28.16 106.432 27.4633 106.432 26.526V14.936C106.432 13.948 106.343 13.2133 106.166 12.732C105.988 12.2507 105.608 12.01 105.026 12.01C104.392 12.01 103.962 12.2507 103.734 12.732C103.506 13.2133 103.392 13.9227 103.392 14.86V26.526C103.392 27.742 103.493 28.654 103.696 29.262C103.898 29.8447 104.354 30.136 105.064 30.136ZM133.539 35.304C131.614 35.228 129.929 34.734 128.485 33.822C127.066 32.91 125.977 31.656 125.217 30.06C124.457 28.464 124.077 26.64 124.077 24.588V13.036C124.077 9.64133 124.862 7.032 126.433 5.208C128.004 3.384 130.372 2.42133 133.539 2.32V7.298C132.627 7.45 131.968 7.81733 131.563 8.4C131.183 8.98266 130.993 9.83133 130.993 10.946V26.64C130.993 27.5267 131.221 28.2613 131.677 28.844C132.158 29.4267 132.779 29.8193 133.539 30.022V35.304ZM134.794 35L137.948 2.358H149.006L152.122 35H145.928L145.472 29.718H141.52L141.14 35H134.794ZM142.014 24.512H144.978L143.534 7.906H143.23L142.014 24.512ZM159.469 35.304C157.848 35.304 156.619 34.924 155.783 34.164C154.972 33.3787 154.428 32.3527 154.149 31.086C153.896 29.794 153.769 28.1473 153.769 26.146L153.845 13.606C153.845 11.63 154.339 10.0213 155.327 8.78C156.34 7.51333 157.759 6.88 159.583 6.88C161.382 6.88 162.724 7.47533 163.611 8.666V2.168H170.261V35H163.611V32.036C163.231 33.1253 162.712 33.9487 162.053 34.506C161.42 35.038 160.558 35.304 159.469 35.304ZM162.015 30.098C162.674 30.098 163.104 29.7813 163.307 29.148C163.51 28.4893 163.611 27.6153 163.611 26.526V25.348V14.898C163.611 14.0873 163.497 13.4033 163.269 12.846C163.041 12.2887 162.636 12.01 162.053 12.01C161.394 12.01 160.951 12.276 160.723 12.808C160.52 13.3147 160.419 14.0113 160.419 14.898V26.602C160.419 28.9327 160.951 30.098 162.015 30.098ZM172.885 5.322V0.685998H179.535V5.322H172.885ZM172.885 35V7.184H179.535V35H172.885ZM182.163 7.184H188.661V10.414C188.965 9.22333 189.484 8.33667 190.219 7.754C190.954 7.17133 191.992 6.88 193.335 6.88C194.424 6.88 195.362 7.13333 196.147 7.64C196.958 8.12133 197.528 8.79267 197.857 9.654C198.414 8.69133 199.035 7.99466 199.719 7.564C200.403 7.108 201.353 6.88 202.569 6.88C204.748 6.88 206.255 7.55133 207.091 8.894C207.952 10.2113 208.383 12.1367 208.383 14.67L208.307 35H201.619V14.556C201.619 12.7573 201.163 11.858 200.251 11.858C199.618 11.858 199.162 12.1747 198.883 12.808C198.604 13.416 198.465 14.1507 198.465 15.012V35H191.815V14.556C191.815 13.7707 191.726 13.1373 191.549 12.656C191.397 12.1747 191.055 11.934 190.523 11.934C189.839 11.934 189.358 12.276 189.079 12.96C188.8 13.6187 188.661 14.4167 188.661 15.354V35H182.163V7.184ZM210.922 5.322V0.685998H217.572V5.322H210.922ZM210.922 35V7.184H217.572V35H210.922ZM220.2 7.184H226.85V10.718C227.129 9.578 227.61 8.65333 228.294 7.944C228.978 7.23467 229.89 6.88 231.03 6.88C232.905 6.88 234.285 7.46267 235.172 8.628C236.084 9.768 236.54 11.402 236.54 13.53V35H230.004V14.214C230.004 13.606 229.877 13.0867 229.624 12.656C229.396 12.2253 229.029 12.01 228.522 12.01C227.838 12.01 227.382 12.3267 227.154 12.96C226.951 13.568 226.85 14.3913 226.85 15.43V35H220.2V7.184ZM238.517 30.022C239.277 29.8193 239.885 29.4267 240.341 28.844C240.822 28.2613 241.063 27.5267 241.063 26.64V10.946C241.063 9.83133 240.86 8.98266 240.455 8.4C240.075 7.81733 239.429 7.45 238.517 7.298V2.32C241.684 2.42133 244.052 3.384 245.623 5.208C247.194 7.032 247.979 9.64133 247.979 13.036V24.588C247.979 26.6653 247.599 28.502 246.839 30.098C246.079 31.6687 244.977 32.91 243.533 33.822C242.114 34.734 240.442 35.228 238.517 35.304V30.022Z" fill="#F2E5D5"/>
</svg>
