<svg width="114" height="36" viewBox="0 0 114 36" fill="none" xmlns="http://www.w3.org/2000/svg">
<path d="M0.868805 35V2.358H13.9408V8.704H7.44281V13.91H13.5988V20.18H7.44281V35H0.868805ZM15.8945 5.322V0.685998H22.5445V5.322H15.8945ZM15.8945 35V7.184H22.5445V35H15.8945ZM25.1728 35V2.168H31.9368V35H25.1728ZM34.5986 7.184H41.0966V10.414C41.4006 9.22333 41.9199 8.33667 42.6546 7.754C43.3892 7.17133 44.4279 6.88 45.7706 6.88C46.8599 6.88 47.7972 7.13333 48.5826 7.64C49.3932 8.12133 49.9632 8.79267 50.2926 9.654C50.8499 8.69133 51.4706 7.99466 52.1546 7.564C52.8386 7.108 53.7886 6.88 55.0046 6.88C57.1832 6.88 58.6906 7.55133 59.5266 8.894C60.3879 10.2113 60.8186 12.1367 60.8186 14.67L60.7426 35H54.0546V14.556C54.0546 12.7573 53.5986 11.858 52.6866 11.858C52.0532 11.858 51.5972 12.1747 51.3186 12.808C51.0399 13.416 50.9006 14.1507 50.9006 15.012V35H44.2506V14.556C44.2506 13.7707 44.1619 13.1373 43.9846 12.656C43.8326 12.1747 43.4906 11.934 42.9586 11.934C42.2746 11.934 41.7932 12.276 41.5146 12.96C41.2359 13.6187 41.0966 14.4167 41.0966 15.354V35H34.5986V7.184ZM63.5094 35V2.358H70.0454V29.452H76.7714V35H63.5094ZM83.5529 35.304C81.3996 35.304 79.9176 34.5947 79.1069 33.176C78.3216 31.732 77.9289 29.68 77.9289 27.02C77.9289 24.8413 78.2076 23.1693 78.7649 22.004C79.3476 20.8387 80.1456 19.99 81.1589 19.458C82.1723 18.9007 83.7176 18.2927 85.7949 17.634L87.6189 17.026V16.95V14.176C87.6189 13.4413 87.4669 12.884 87.1629 12.504C86.8843 12.0987 86.5423 11.896 86.1369 11.896C85.7823 11.896 85.4656 12.0607 85.1869 12.39C84.9336 12.7193 84.8069 13.1627 84.8069 13.72V15.392H78.3469V14.48C78.3469 11.744 78.9803 9.79333 80.2469 8.628C81.5389 7.46267 83.6289 6.88 86.5169 6.88C88.8223 6.88 90.6969 7.488 92.1409 8.704C93.5849 9.89467 94.3069 11.592 94.3069 13.796V35H87.6949V31.694C87.3656 32.834 86.8336 33.7207 86.0989 34.354C85.3896 34.9873 84.5409 35.304 83.5529 35.304ZM86.1749 30.136C86.6816 30.136 87.0363 29.9333 87.2389 29.528C87.4669 29.0973 87.5809 28.578 87.5809 27.97V20.218C86.5929 20.598 85.8583 21.0793 85.3769 21.662C84.9209 22.2447 84.6929 23.0553 84.6929 24.094V27.666C84.6929 29.3127 85.1869 30.136 86.1749 30.136ZM107.622 35.304C105.798 35.304 104.493 34.2147 103.708 32.036V35H96.8681V2.168H103.708V8.514C104.772 7.42467 106.013 6.88 107.432 6.88C109.585 6.88 111.131 7.526 112.068 8.818C113.005 10.0847 113.474 11.9213 113.474 14.328V27.742C113.474 30.022 112.993 31.8587 112.03 33.252C111.067 34.62 109.598 35.304 107.622 35.304ZM105.38 30.136C105.836 30.136 106.153 29.9967 106.33 29.718C106.533 29.414 106.647 29.0467 106.672 28.616C106.723 28.16 106.748 27.4633 106.748 26.526V14.936C106.748 13.948 106.659 13.2133 106.482 12.732C106.305 12.2507 105.925 12.01 105.342 12.01C104.709 12.01 104.278 12.2507 104.05 12.732C103.822 13.2133 103.708 13.9227 103.708 14.86V26.526C103.708 27.742 103.809 28.654 104.012 29.262C104.215 29.8447 104.671 30.136 105.38 30.136Z" fill="#F2E5D5"/>
</svg>
