<svg width="657" height="88" viewBox="0 0 657 88" fill="none" xmlns="http://www.w3.org/2000/svg">
<path d="M8.52 53V36.02L0.3 1.46H10.5L13.38 18.92L16.26 1.46H26.46L18.24 36.02V53H8.52ZM41.3573 53.48C37.1973 53.48 34.0373 52.22 31.8773 49.7C29.7173 47.14 28.6373 43.56 28.6373 38.96V14.42C28.6373 9.98 29.7173 6.64 31.8773 4.4C34.0373 2.12 37.1973 0.979997 41.3573 0.979997C45.5173 0.979997 48.6773 2.12 50.8373 4.4C52.9973 6.64 54.0773 9.98 54.0773 14.42V38.96C54.0773 43.6 52.9973 47.18 50.8373 49.7C48.6773 52.22 45.5173 53.48 41.3573 53.48ZM41.3573 44C42.2773 44 42.8973 43.6 43.2173 42.8C43.5373 42 43.6973 40.88 43.6973 39.44V14.24C43.6973 13.12 43.5373 12.22 43.2173 11.54C42.9373 10.82 42.3373 10.46 41.4173 10.46C39.6973 10.46 38.8373 11.76 38.8373 14.36V39.5C38.8373 40.98 39.0173 42.1 39.3773 42.86C39.7373 43.62 40.3973 44 41.3573 44ZM70.177 53.48C65.937 53.48 62.777 52.28 60.697 49.88C58.657 47.48 57.637 43.92 57.637 39.2V1.46H67.657V38.78C67.657 40.42 67.817 41.7 68.137 42.62C68.457 43.54 69.137 44 70.177 44C71.217 44 71.897 43.56 72.217 42.68C72.537 41.76 72.697 40.46 72.697 38.78V1.46H82.717V39.2C82.717 43.92 81.677 47.48 79.597 49.88C77.557 52.28 74.417 53.48 70.177 53.48ZM86.655 1.46H102.495C105.015 1.46 106.955 2.04 108.315 3.2C109.715 4.32 110.655 5.92 111.135 8C111.615 10.04 111.855 12.66 111.855 15.86C111.855 18.78 111.475 21.06 110.715 22.7C109.955 24.34 108.635 25.48 106.755 26.12C108.315 26.44 109.435 27.22 110.115 28.46C110.835 29.7 111.195 31.38 111.195 33.5L111.075 53H100.995V32.84C100.995 31.4 100.715 30.48 100.155 30.08C99.595 29.68 98.575 29.48 97.095 29.48V53H86.655V1.46ZM99.615 20.54C101.055 20.54 101.775 18.98 101.775 15.86C101.775 14.5 101.715 13.48 101.595 12.8C101.475 12.12 101.255 11.66 100.935 11.42C100.615 11.14 100.155 11 99.555 11H97.155V20.54H99.615ZM141.611 53.48C137.451 53.48 134.291 52.22 132.131 49.7C129.971 47.14 128.891 43.56 128.891 38.96V14.42C128.891 9.98 129.971 6.64 132.131 4.4C134.291 2.12 137.451 0.979997 141.611 0.979997C145.771 0.979997 148.931 2.12 151.091 4.4C153.251 6.64 154.331 9.98 154.331 14.42V38.96C154.331 43.6 153.251 47.18 151.091 49.7C148.931 52.22 145.771 53.48 141.611 53.48ZM141.611 44C142.531 44 143.151 43.6 143.471 42.8C143.791 42 143.951 40.88 143.951 39.44V14.24C143.951 13.12 143.791 12.22 143.471 11.54C143.191 10.82 142.591 10.46 141.671 10.46C139.951 10.46 139.091 11.76 139.091 14.36V39.5C139.091 40.98 139.271 42.1 139.631 42.86C139.991 43.62 140.651 44 141.611 44ZM158.491 1.46H172.111C176.231 1.46 179.171 2.8 180.931 5.48C182.691 8.12 183.571 12 183.571 17.12C183.571 22.24 182.791 26.1 181.231 28.7C179.671 31.3 176.871 32.6 172.831 32.6H168.631V53H158.491V1.46ZM169.231 23.3C170.471 23.3 171.371 23.08 171.931 22.64C172.531 22.16 172.911 21.5 173.071 20.66C173.271 19.78 173.371 18.54 173.371 16.94C173.371 14.78 173.131 13.22 172.651 12.26C172.171 11.3 171.211 10.82 169.771 10.82H168.631V23.3H169.231ZM186.312 53V1.46H196.272V53H186.312ZM200.385 53V1.46H211.005L215.745 26.12V1.46H225.705V53H215.625L210.465 27.2V53H200.385ZM229.788 53V1.46H239.748V53H229.788ZM256.162 53.48C252.002 53.48 248.842 52.22 246.682 49.7C244.522 47.14 243.442 43.56 243.442 38.96V14.42C243.442 9.98 244.522 6.64 246.682 4.4C248.842 2.12 252.002 0.979997 256.162 0.979997C260.322 0.979997 263.482 2.12 265.642 4.4C267.802 6.64 268.882 9.98 268.882 14.42V38.96C268.882 43.6 267.802 47.18 265.642 49.7C263.482 52.22 260.322 53.48 256.162 53.48ZM256.162 44C257.082 44 257.702 43.6 258.022 42.8C258.342 42 258.502 40.88 258.502 39.44V14.24C258.502 13.12 258.342 12.22 258.022 11.54C257.742 10.82 257.142 10.46 256.222 10.46C254.502 10.46 253.642 11.76 253.642 14.36V39.5C253.642 40.98 253.822 42.1 254.182 42.86C254.542 43.62 255.202 44 256.162 44ZM273.042 53V1.46H283.662L288.402 26.12V1.46H298.362V53H288.282L283.122 27.2V53H273.042ZM316.987 53V1.46H332.707L337.027 32.9L341.347 1.46H357.187V53H347.767V15.86L341.827 53H332.587L326.287 15.86V53H316.987ZM360.373 53L365.353 1.46H382.813L387.733 53H377.953L377.233 44.66H370.993L370.393 53H360.373ZM371.773 36.44H376.453L374.173 10.22H373.693L371.773 36.44ZM395.314 53V11.36H389.194V1.46H411.754V11.36H405.634V53H395.314ZM419.103 53V11.36H412.983V1.46H435.543V11.36H429.423V53H419.103ZM438.452 53V1.46H459.092V11.42H448.952V21.44H458.672V31.16H448.952V42.98H459.752V53H438.452ZM463.178 1.46H479.018C481.538 1.46 483.478 2.04 484.838 3.2C486.238 4.32 487.178 5.92 487.658 8C488.138 10.04 488.378 12.66 488.378 15.86C488.378 18.78 487.998 21.06 487.238 22.7C486.478 24.34 485.158 25.48 483.278 26.12C484.838 26.44 485.958 27.22 486.638 28.46C487.358 29.7 487.718 31.38 487.718 33.5L487.598 53H477.518V32.84C477.518 31.4 477.238 30.48 476.678 30.08C476.118 29.68 475.098 29.48 473.618 29.48V53H463.178V1.46ZM476.138 20.54C477.578 20.54 478.298 18.98 478.298 15.86C478.298 14.5 478.238 13.48 478.118 12.8C477.998 12.12 477.778 11.66 477.458 11.42C477.138 11.14 476.678 11 476.078 11H473.678V20.54H476.138ZM504.012 53.48C499.332 53.48 495.952 52.32 493.872 50C491.792 47.68 490.752 43.94 490.752 38.78V33.74H500.892V40.16C500.892 42.72 501.712 44 503.352 44C504.272 44 504.912 43.74 505.272 43.22C505.632 42.66 505.812 41.74 505.812 40.46C505.812 38.78 505.612 37.4 505.212 36.32C504.812 35.2 504.292 34.28 503.652 33.56C503.052 32.8 501.952 31.64 500.352 30.08L495.912 25.64C492.472 22.28 490.752 18.56 490.752 14.48C490.752 10.08 491.752 6.74 493.752 4.46C495.792 2.14 498.752 0.979997 502.632 0.979997C507.272 0.979997 510.612 2.22 512.652 4.7C514.692 7.14 515.712 10.98 515.712 16.22H505.212L505.152 12.68C505.152 12 504.952 11.46 504.552 11.06C504.192 10.66 503.672 10.46 502.992 10.46C502.192 10.46 501.592 10.68 501.192 11.12C500.792 11.56 500.592 12.16 500.592 12.92C500.592 14.6 501.552 16.34 503.472 18.14L509.472 23.9C510.872 25.26 512.032 26.56 512.952 27.8C513.872 29 514.612 30.44 515.172 32.12C515.732 33.76 516.012 35.72 516.012 38C516.012 43.08 515.072 46.94 513.192 49.58C511.352 52.18 508.292 53.48 504.012 53.48ZM537.931 53V11.36H531.811V1.46H554.371V11.36H548.251V53H537.931ZM569.58 53.48C565.42 53.48 562.26 52.22 560.1 49.7C557.94 47.14 556.86 43.56 556.86 38.96V14.42C556.86 9.98 557.94 6.64 560.1 4.4C562.26 2.12 565.42 0.979997 569.58 0.979997C573.74 0.979997 576.9 2.12 579.06 4.4C581.22 6.64 582.3 9.98 582.3 14.42V38.96C582.3 43.6 581.22 47.18 579.06 49.7C576.9 52.22 573.74 53.48 569.58 53.48ZM569.58 44C570.5 44 571.12 43.6 571.44 42.8C571.76 42 571.92 40.88 571.92 39.44V14.24C571.92 13.12 571.76 12.22 571.44 11.54C571.16 10.82 570.56 10.46 569.64 10.46C567.92 10.46 567.06 11.76 567.06 14.36V39.5C567.06 40.98 567.24 42.1 567.6 42.86C567.96 43.62 568.62 44 569.58 44ZM612.462 53.48C608.222 53.48 605.062 52.28 602.982 49.88C600.942 47.48 599.922 43.92 599.922 39.2V1.46H609.942V38.78C609.942 40.42 610.102 41.7 610.422 42.62C610.742 43.54 611.422 44 612.462 44C613.502 44 614.182 43.56 614.502 42.68C614.822 41.76 614.982 40.46 614.982 38.78V1.46H625.002V39.2C625.002 43.92 623.962 47.48 621.882 49.88C619.842 52.28 616.702 53.48 612.462 53.48ZM641.18 53.48C636.5 53.48 633.12 52.32 631.04 50C628.96 47.68 627.92 43.94 627.92 38.78V33.74H638.06V40.16C638.06 42.72 638.88 44 640.52 44C641.44 44 642.08 43.74 642.44 43.22C642.8 42.66 642.98 41.74 642.98 40.46C642.98 38.78 642.78 37.4 642.38 36.32C641.98 35.2 641.46 34.28 640.82 33.56C640.22 32.8 639.12 31.64 637.52 30.08L633.08 25.64C629.64 22.28 627.92 18.56 627.92 14.48C627.92 10.08 628.92 6.74 630.92 4.46C632.96 2.14 635.92 0.979997 639.8 0.979997C644.44 0.979997 647.78 2.22 649.82 4.7C651.86 7.14 652.88 10.98 652.88 16.22H642.38L642.32 12.68C642.32 12 642.12 11.46 641.72 11.06C641.36 10.66 640.84 10.46 640.16 10.46C639.36 10.46 638.76 10.68 638.36 11.12C637.96 11.56 637.76 12.16 637.76 12.92C637.76 14.6 638.72 16.34 640.64 18.14L646.64 23.9C648.04 25.26 649.2 26.56 650.12 27.8C651.04 29 651.78 30.44 652.34 32.12C652.9 33.76 653.18 35.72 653.18 38C653.18 43.08 652.24 46.94 650.36 49.58C648.52 52.18 645.46 53.48 641.18 53.48Z" fill="#734C36"/>
<rect x="202" y="72" width="88" height="13" fill="#A64F3C"/>
<rect x="362" y="72" width="88" height="13" fill="#A64F3C"/>
<path d="M304.34 79L313 87.6603L321.66 79L313 70.3397L304.34 79ZM347.66 79L339 70.3397L330.34 79L339 87.6603L347.66 79ZM313 80.5H339V77.5H313V80.5Z" fill="#734C36"/>
</svg>
