<svg width="70" height="70" viewBox="0 0 70 70" fill="none" xmlns="http://www.w3.org/2000/svg">
<path d="M70 38.6818V45.0442C70 46.6314 68.7134 47.918 67.1261 47.918H64.051C63.4955 44.1055 60.2096 41.1741 56.2436 41.1741C52.2873 41.1741 49.0015 44.1055 48.4458 47.918H22.3225C21.7669 44.1055 18.481 41.1741 14.5247 41.1741C10.5683 41.1741 7.2824 44.1055 6.72686 47.918H2.87583C1.28871 47.918 0.00205882 46.6314 0.00205882 45.0442V38.6818H70ZM19.7952 23.3285H18.1581L17.5566 26.4345H19.1516C20.2144 26.4345 21.0956 25.7067 21.0956 24.4896C21.0956 23.7486 20.6064 23.3285 19.7952 23.3285ZM62.2099 49.058C62.2099 52.344 59.5372 55.0164 56.2513 55.0164C52.9559 55.0164 50.2832 52.3437 50.2832 49.058C50.2832 45.7626 52.9559 43.0899 56.2513 43.0899C59.5371 43.0899 62.2099 45.7627 62.2099 49.058ZM59.2306 49.058C59.2306 47.4105 57.8894 46.0787 56.2514 46.0787C54.6038 46.0787 53.2721 47.4105 53.2721 49.058C53.2721 50.6961 54.6038 52.0374 56.2514 52.0374C57.8894 52.0374 59.2306 50.6961 59.2306 49.058ZM20.4811 49.058C20.4811 52.344 17.818 55.0164 14.5226 55.0164C11.2272 55.0164 8.56413 52.3437 8.56413 49.058C8.56413 45.7626 11.2273 43.0899 14.5226 43.0899C17.8179 43.0899 20.4811 45.7627 20.4811 49.058ZM17.5019 49.058C17.5019 47.4105 16.1703 46.0787 14.5228 46.0787C12.8751 46.0787 11.5436 47.4105 11.5436 49.058C11.5436 50.6961 12.8752 52.0374 14.5228 52.0374C16.1703 52.0374 17.5019 50.6961 17.5019 49.058ZM69.9979 37.0933H0V17.8574C0 16.2672 1.29328 14.9836 2.87377 14.9836H46.3076C47.8978 14.9836 49.1815 16.2673 49.1815 17.8574V19.9938H54.8814C55.8872 19.9938 56.8548 20.3962 57.5732 21.105L68.8675 32.2748C69.5859 32.9933 69.9979 33.9703 69.9979 34.9954V37.0933ZM10.2008 26.1408L10.7322 23.3286H14.6491L14.9428 21.7757H9.24938L7.31855 31.708H9.10915L9.8931 27.6929H13.1944L13.4882 26.1409H10.2008V26.1408ZM20.6765 27.5252V27.4971C22.1733 27.0077 22.9424 25.5391 22.9424 24.1817C22.9424 23.1611 22.4391 22.3911 21.599 22.0271C21.194 21.8457 20.7036 21.7755 20.1724 21.7755H16.6614L14.7313 31.7077H16.535L17.2488 28.0003H19.0394L20.2986 31.7077H22.2287L20.9003 28.0283C20.7739 27.6655 20.6765 27.5252 20.6765 27.5252ZM31.6959 21.7756H25.7649L23.8209 31.7079H29.9896L30.2833 30.155H25.9192L26.4366 27.4832H29.78L30.0878 25.9303H26.7443L27.2476 23.3286H31.3883L31.6959 21.7756ZM39.7094 21.7756H33.7783L31.8343 31.7079H38.0031L38.2967 30.155H33.9326L34.45 27.4832H37.7934L38.1012 25.9303H34.7576L35.261 23.3286H39.4015L39.7094 21.7756ZM64.2503 31.8723L55.4082 23.4326C55.322 23.3561 55.207 23.3082 55.0921 23.3082H53.0133C52.7642 23.3082 52.563 23.5093 52.563 23.7585V32.1982C52.563 32.4473 52.7642 32.6483 53.0133 32.6483H63.9436C64.346 32.6482 64.5472 32.1501 64.2503 31.8723Z" fill="#734C36"/>
</svg>
