<svg width="50" height="50" viewBox="0 0 50 50" fill="none" xmlns="http://www.w3.org/2000/svg">
<path d="M31.6502 12.3076H18.3502C15.0194 12.3076 12.3078 15.0191 12.3078 18.3499V31.6499C12.3078 34.9807 15.0194 37.6922 18.3502 37.6922H31.6502C34.9809 37.6922 37.6925 34.9807 37.6925 31.6499V18.3499C37.6925 15.0191 34.9809 12.3076 31.6502 12.3076ZM25.0002 32.9038C20.6425 32.9038 17.0963 29.3576 17.0963 24.9999C17.0963 20.6422 20.6425 17.0961 25.0002 17.0961C29.3578 17.0961 32.904 20.6422 32.904 24.9999C32.904 29.3576 29.3578 32.9038 25.0002 32.9038ZM33.1194 18.7114C32.1002 18.7114 31.2732 17.8845 31.2732 16.8634C31.2732 15.8441 32.1002 15.0172 33.1194 15.0172C34.1405 15.0172 34.9675 15.8441 34.9675 16.8634C34.9675 17.8845 34.1405 18.7114 33.1194 18.7114ZM25.0002 19.7884C22.1271 19.7884 19.7886 22.1268 19.7886 24.9999C19.7886 27.873 22.1271 30.2114 25.0002 30.2114C27.8732 30.2114 30.2117 27.873 30.2117 24.9999C30.2117 22.1268 27.8732 19.7884 25.0002 19.7884ZM25.0002 0.384521C11.4059 0.384521 0.384766 11.4057 0.384766 24.9999C0.384766 38.5941 11.4059 49.6153 25.0002 49.6153C38.5944 49.6153 49.6155 38.5941 49.6155 24.9999C49.6155 11.4057 38.5944 0.384521 25.0002 0.384521ZM40.3848 31.6499C40.3848 36.4653 36.4655 40.3845 31.6502 40.3845H18.3502C13.5348 40.3845 9.61553 36.4653 9.61553 31.6499V18.3499C9.61553 13.5345 13.5348 9.61529 18.3502 9.61529H31.6502C36.4655 9.61529 40.3848 13.5345 40.3848 18.3499V31.6499Z" fill="#734C36"/>
</svg>
