<svg width="50" height="50" viewBox="0 0 50 50" fill="none" xmlns="http://www.w3.org/2000/svg">
<path d="M25 50C38.8071 50 50 38.8071 50 25C50 11.1929 38.8071 0 25 0C11.1929 0 0 11.1929 0 25C0 38.8071 11.1929 50 25 50Z" fill="#734C36"/>
<path d="M36.0682 15.6365L14.2305 30.336L32.6784 48.7969C41.4316 45.9748 48.0757 38.4587 49.6451 29.2136L36.0682 15.6365Z" fill="#734C36"/>
<path d="M39.1871 24.2916C39.2527 23.9455 39.2853 23.6543 39.3002 23.4259C39.3249 23.049 39.2969 22.4894 39.2867 22.3141C38.9395 16.2752 32.6742 11.4641 24.9962 11.4641C17.0953 11.4641 10.6904 16.5585 10.6904 22.8429C10.6904 28.6192 16.1014 33.3899 23.1116 34.1237C23.5402 34.1685 23.8491 34.5555 23.8017 34.9836L23.5032 37.6702C23.4355 38.2799 24.066 38.7237 24.6187 38.4569C30.5415 35.5985 34.0831 32.6579 36.1978 30.1104C36.5827 29.6467 37.8376 27.8887 38.0935 27.4269C38.6366 26.4464 39.011 25.3935 39.1871 24.2916Z" fill="#E8D1B5"/>
<path d="M39.286 22.3139C38.9388 16.275 32.6734 11.4639 24.9954 11.4639C24.9779 11.4639 24.9609 11.4648 24.9434 11.4648V38.2974C30.6698 35.4893 34.1213 32.6103 36.1971 30.11C36.5819 29.6465 37.8368 27.8883 38.0927 27.4265C38.6358 26.4462 39.0102 25.3935 39.1862 24.2913C39.2519 23.9452 39.2844 23.6541 39.2993 23.4257C39.3242 23.0489 39.2961 22.4892 39.286 22.3139Z" fill="#E8D1B5"/>
<path d="M17.1297 25.1479V20.3549C17.1297 19.9507 16.802 19.623 16.3979 19.623C15.9937 19.623 15.666 19.9507 15.666 20.3549V25.8796C15.666 26.2838 15.9937 26.6114 16.3979 26.6114H19.325C19.7292 26.6114 20.0568 26.2838 20.0568 25.8796C20.0568 25.4754 19.7292 25.1478 19.325 25.1478H17.1297V25.1479Z" fill="#734C36"/>
<path d="M21.6437 26.6112H21.3238C21.008 26.6112 20.752 26.3551 20.752 26.0393V20.1947C20.752 19.8789 21.008 19.6228 21.3238 19.6228H21.6437C21.9595 19.6228 22.2155 19.8789 22.2155 20.1947V26.0393C22.2155 26.3553 21.9595 26.6112 21.6437 26.6112Z" fill="#734C36"/>
<path d="M27.5575 20.3548V23.7299C27.5575 23.7299 24.6352 19.9181 24.5905 19.868C24.451 19.7113 24.2451 19.615 24.0168 19.6236C23.6188 19.6387 23.3135 19.9866 23.3135 20.3849V25.8795C23.3135 26.2837 23.6411 26.6114 24.0453 26.6114C24.4495 26.6114 24.7771 26.2837 24.7771 25.8795V22.5249C24.7771 22.5249 27.7439 26.3699 27.7876 26.4113C27.9171 26.5338 28.0908 26.6096 28.2827 26.6113C28.6892 26.615 29.0213 26.2555 29.0213 25.8492V20.3549C29.0213 19.9507 28.6937 19.6231 28.2895 19.6231C27.8853 19.623 27.5575 19.9506 27.5575 20.3548Z" fill="#734C36"/>
<path d="M34.509 20.3549C34.509 19.9507 34.1813 19.623 33.7771 19.623H30.85C30.4458 19.623 30.1182 19.9507 30.1182 20.3549V25.8796C30.1182 26.2838 30.4458 26.6114 30.85 26.6114H33.7771C34.1813 26.6114 34.509 26.2838 34.509 25.8796C34.509 25.4754 34.1813 25.1478 33.7771 25.1478H31.5818V23.8489H33.7771C34.1813 23.8489 34.509 23.5213 34.509 23.1171C34.509 22.7129 34.1813 22.3853 33.7771 22.3853H31.5818V21.0864H33.7771C34.1813 21.0865 34.509 20.7589 34.509 20.3549Z" fill="#734C36"/>
</svg>
