<svg width="50" height="50" viewBox="0 0 50 50" fill="none" xmlns="http://www.w3.org/2000/svg">
<path d="M24.9999 0C38.8078 0 50 11.1937 50 25.0001C50 38.8064 38.8078 50 24.9999 50C11.192 50 0 38.8063 0 25.0001C0 11.1939 11.1922 0 24.9999 0Z" fill="#734C36"/>
<path d="M14.0876 34.3499H18.7689V18.7468H14.0876V34.3499ZM32.3251 18.2063C30.0532 18.2063 28.0204 19.036 26.5783 20.8673V18.6954H21.8799V34.3501H26.5783V25.8845C26.5783 24.0954 28.2174 22.35 30.2705 22.35C32.3236 22.35 32.8299 24.0954 32.8299 25.8407V34.3486H37.5112V25.4923C37.511 19.3406 34.5986 18.2063 32.3251 18.2063ZM16.4063 17.1875C17.7001 17.1875 18.7501 16.1374 18.7501 14.8436C18.7501 13.5499 17.7001 12.5 16.4063 12.5C15.1126 12.5 14.0625 13.5501 14.0625 14.8438C14.0625 16.1376 15.1126 17.1875 16.4063 17.1875Z" fill="#E8D1B5"/>
</svg>
