<svg width="44" height="44" viewBox="0 0 44 44" fill="none" xmlns="http://www.w3.org/2000/svg">
<path d="M33.8802 9.33367L31.7575 12.0606C36.333 15.6209 38.6153 21.385 37.7145 27.105C37.0547 31.3022 34.7994 34.9913 31.3646 37.4932C27.9288 39.9937 23.7258 41.0101 19.5286 40.3468C10.8641 38.9826 4.92316 30.8238 6.28516 22.1586C6.94504 17.9609 9.20102 14.2716 12.6362 11.7704C15.6354 9.58709 19.2193 8.53846 22.8741 8.74646L19.8869 11.8803L22.1029 13.9951L26.8184 9.04461L26.8195 9.04642L28.932 6.82813L26.7176 4.71566L26.7164 4.71634L21.7678 0L19.6537 2.21829L22.8782 5.28947C18.495 5.08215 14.2017 6.35718 10.6028 8.97762C6.42163 12.022 3.6763 16.5122 2.87245 21.6223C1.21436 32.1687 8.44486 42.1007 18.9913 43.7604C20.0107 43.9212 21.0296 44 22.0419 44C26.1042 44 30.0515 42.7232 33.3981 40.286C37.5797 37.2411 40.3245 32.751 41.1284 27.642C42.2249 20.6813 39.4473 13.6656 33.8802 9.33367Z" fill="#734C36"/>
<path d="M23.8973 34.5088V34.5081H23.8975V32.5196C26.2553 32.2564 28.5492 30.767 28.5492 27.9395C28.5492 24.0976 24.9768 23.6571 22.3675 23.3358C20.6992 23.1364 19.4224 22.905 19.4224 21.8943C19.4224 20.4892 21.4029 20.3377 22.2547 20.3377C23.5188 20.3377 24.8676 20.932 25.3258 21.6904L25.4589 21.9109L28.0798 20.6981L27.9501 20.4338C26.9735 18.4371 25.2232 17.8594 23.8969 17.6262V15.8755H20.828V17.6187C17.9709 18.0402 16.2742 19.6259 16.2742 21.8943C16.2742 25.5934 19.6329 25.9687 22.0832 26.2435C24.267 26.501 25.2836 27.0405 25.2836 27.9395C25.2836 29.6569 22.9052 29.7911 22.1761 29.7911C20.5532 29.7911 18.9884 28.9813 18.5359 27.9061L18.4235 27.6407L15.5762 28.8478L15.6897 29.1133C16.5328 31.0868 18.3522 32.3234 20.8284 32.6159V34.5088H23.8973Z" fill="#734C36"/>
</svg>
