<svg width="51" height="49" viewBox="0 0 51 49" fill="none" xmlns="http://www.w3.org/2000/svg">
<g clip-path="url(#clip0_283_426)">
<path d="M50.4988 28.561C49.8082 27.3986 48.5042 26.6765 47.0956 26.6765C46.4303 26.6765 45.7696 26.8414 45.1853 27.1534L33.8143 33.2255C33.6659 33.3047 33.5588 33.4387 33.5181 33.5956C33.3198 34.3632 32.8529 35.435 31.7561 36.1814C30.5421 37.0075 28.8998 37.1795 26.8987 36.6929C26.8866 36.6901 26.8747 36.6868 26.8642 36.6837L20.3046 34.7525C19.908 34.6357 19.6856 34.2347 19.8087 33.8587C19.9073 33.5579 20.1963 33.3559 20.5279 33.3559C20.6032 33.3559 20.6787 33.3668 20.7517 33.3882L27.2771 35.3095C27.2875 35.3124 27.2982 35.3153 27.3089 35.3179C28.8478 35.6862 30.0496 35.5837 30.8775 35.0208C31.9235 34.3091 32.1077 33.0581 32.1295 32.8743C32.1303 32.8685 32.131 32.8626 32.1314 32.8566C32.1318 32.8537 32.1319 32.852 32.1321 32.8516C32.1322 32.8496 32.1323 32.8477 32.1325 32.8459C32.1326 32.8446 32.1326 32.8434 32.1327 32.8421C32.2572 31.2995 31.2074 29.8751 29.6346 29.454L29.6057 29.4457C29.5578 29.4309 24.7305 27.9358 21.6548 27.1036C21.3131 27.0113 20.3715 26.7964 19.0097 26.7964C17.1051 26.7964 14.2639 27.2243 11.5386 29.2671L0.228774 37.9419C-0.0299428 38.1402 -0.0758243 38.4974 0.124959 38.749L6.24871 46.419C6.348 46.5431 6.49537 46.6247 6.65822 46.6455C6.68547 46.649 6.71273 46.6506 6.74012 46.6506C6.8753 46.6506 7.00774 46.6084 7.11607 46.5292L15.0039 40.7702C15.1811 40.641 15.4187 40.5923 15.6365 40.641L28.3765 43.4958C29.3212 43.7075 30.3423 43.5708 31.1873 43.1192L49.014 33.5994C50.8882 32.5982 51.5542 30.3383 50.4988 28.561Z" fill="#734C36"/>
<path d="M43.414 1.70837H20.1308C19.3745 1.70837 18.7612 2.28979 18.7612 3.00705V8.91654C18.7612 9.63379 19.3745 10.2152 20.1308 10.2152H20.6424V22.7634C20.6424 23.4807 21.2555 24.0621 22.012 24.0621H41.5323C42.2887 24.0621 42.9019 23.4807 42.9019 22.7634V10.2151H43.4139C44.1702 10.2151 44.7835 9.63366 44.7835 8.91641V3.00705C44.7836 2.28979 44.1703 1.70837 43.414 1.70837ZM34.6534 13.3006H28.8912C28.2871 13.3006 27.7955 12.8345 27.7955 12.2617C27.7955 11.6888 28.2871 11.2227 28.8912 11.2227H34.6534C35.2575 11.2227 35.749 11.6888 35.749 12.2617C35.749 12.8345 35.2575 13.3006 34.6534 13.3006ZM42.0444 7.61773H41.5324H22.012H21.5004V4.30572H42.0444V7.61773Z" fill="#734C36"/>
</g>
<defs>
<clipPath id="clip0_283_426">
<rect width="51" height="48.359" fill="white"/>
</clipPath>
</defs>
</svg>
