<svg width="44" height="50" viewBox="0 0 44 50" fill="none" xmlns="http://www.w3.org/2000/svg">
<g clip-path="url(#clip0_438_220)">
<path d="M14.583 37.5C12.2913 37.5 10.4372 39.375 10.4372 41.6667C10.4372 43.9584 12.2913 45.8334 14.583 45.8334C16.8747 45.8334 18.7497 43.9584 18.7497 41.6667C18.7497 39.375 16.8747 37.5 14.583 37.5ZM2.08301 4.16669V8.33335H6.24967L13.7497 24.1459L10.9372 29.25C10.6038 29.8334 10.4163 30.5209 10.4163 31.25C10.4163 33.5417 12.2913 35.4167 14.583 35.4167H39.583V31.25H15.458C15.1663 31.25 14.9372 31.0209 14.9372 30.7292L14.9997 30.4792L16.8747 27.0834H32.3955C33.958 27.0834 35.333 26.2292 36.0413 24.9375L43.4997 11.4167C43.6663 11.125 43.7497 10.7709 43.7497 10.4167C43.7497 9.27085 42.8122 8.33335 41.6663 8.33335H10.8538L8.89551 4.16669H2.08301ZM35.4163 37.5C33.1247 37.5 31.2705 39.375 31.2705 41.6667C31.2705 43.9584 33.1247 45.8334 35.4163 45.8334C37.708 45.8334 39.583 43.9584 39.583 41.6667C39.583 39.375 37.708 37.5 35.4163 37.5Z" fill="#F2E5D5"/>
</g>
<defs>
<clipPath id="clip0_438_220">
<rect width="44" height="50" fill="white"/>
</clipPath>
</defs>
</svg>
