<svg width="42" height="42" viewBox="0 0 42 42" fill="none" xmlns="http://www.w3.org/2000/svg">
<g clip-path="url(#clip0_283_452)">
<path d="M3.95621 11.8742C4.31664 12.0544 5.33785 12.5951 6.45345 11.3422C6.89969 10.7157 7.34594 10.0892 7.87799 9.47137C8.50445 8.7591 8.41005 7.60058 7.69778 6.97413C6.98551 6.34767 5.827 6.44207 5.20054 7.15434C4.57408 7.86661 3.94763 8.67328 3.41557 9.47137C2.89209 10.2695 3.15812 11.3336 3.95621 11.8742Z" fill="#734C36"/>
<path d="M21.3683 3.4814C23.0675 3.4814 24.758 3.74743 26.3714 4.28807C27.4526 4.60559 28.2422 3.92764 28.6026 3.21537C28.8686 2.23707 28.3366 1.25019 27.4441 0.98416C25.4789 0.357704 23.5137 0.00585938 21.4627 0.00585938C20.4844 0.00585938 19.6777 0.718131 19.6777 1.70501C19.6777 2.6919 20.39 3.4814 21.3683 3.4814Z" fill="#734C36"/>
<path d="M37.2613 14.3715C37.8877 15.8904 38.2396 17.4952 38.4198 19.0999C38.4198 19.0999 38.5227 21.0909 40.3849 20.7991C42.23 20.5588 41.9897 18.7481 41.9897 18.7481C41.8095 16.7829 41.2774 14.8177 40.5652 13.0328C40.1189 12.1403 39.1406 11.694 38.2481 12.0545C37.3471 12.5007 36.9008 13.479 37.2613 14.3715Z" fill="#734C36"/>
<path d="M30.8336 6.51928C32.2582 7.49758 33.5111 8.66468 34.5838 10.0034C35.3819 10.9989 36.7292 10.587 36.9952 10.2694C37.7075 9.64298 37.8877 8.48446 37.2613 7.77219C36.0083 6.25325 34.4894 4.82871 32.7988 3.66161C31.9922 3.12955 30.928 3.30118 30.3874 4.10785C29.8468 4.91452 30.027 5.97864 30.8336 6.51928Z" fill="#734C36"/>
<path d="M11.5509 6.24471C12.9754 5.35222 14.5888 4.63995 16.1935 4.19371C17.1718 3.92768 17.7125 2.9408 17.4465 2.04831C17.1804 1.07001 16.1935 0.529371 15.3011 0.7954C13.3359 1.32746 11.4651 2.13413 9.76593 3.20683C8.95927 3.73888 8.69324 4.81158 9.23388 5.61825C9.58572 6.15889 10.3409 6.69095 11.5509 6.24471Z" fill="#734C36"/>
<path d="M40.2048 23.0303C39.2265 22.7642 38.334 23.3907 38.1538 24.369C37.9736 25.1757 37.4243 27.055 37.4158 27.2352C35.0558 33.3711 29.392 37.6876 22.8871 38.3827C16.4853 39.0521 10.255 36.1601 6.64219 30.9596L9.9461 31.6891C10.8386 31.8693 11.8169 31.3287 11.9971 30.3504C12.1773 29.4579 11.6367 28.4796 10.6584 28.2994L3.6987 26.7804C3.25246 26.6946 1.86224 26.7804 1.55331 28.1191L0.0343645 35.1732C-0.145849 36.0657 0.394791 37.044 1.37309 37.2242C2.46295 37.3358 3.24388 36.6921 3.51849 35.7997L4.05055 33.3797C8.02382 38.7603 15.198 42.7422 23.2476 41.8754C31.3657 41.0001 38.2482 35.5336 40.9256 27.8617C41.0114 27.6386 41.4148 25.7678 41.5521 25.0898C41.8181 24.103 41.1917 23.2105 40.2048 23.0303Z" fill="#734C36"/>
<path d="M14.1253 22.7642H22.3551C23.3334 22.7642 24.0542 21.9576 24.14 20.9793V8.77624C24.14 7.79794 23.3334 6.99127 22.3551 6.99127C21.3767 6.99127 20.5701 7.79794 20.5701 8.77624V19.1943H14.1253C13.147 19.1943 12.3403 20.001 12.3403 20.9793C12.3403 21.9576 13.1384 22.7642 14.1253 22.7642Z" fill="#734C36"/>
</g>
<defs>
<clipPath id="clip0_283_452">
<rect width="42" height="42" fill="white"/>
</clipPath>
</defs>
</svg>
