<svg width="50" height="50" viewBox="0 0 50 50" fill="none" xmlns="http://www.w3.org/2000/svg">
<g clip-path="url(#clip0_57_157)">
<path d="M25.0008 49.9996C38.8078 49.9996 50.0005 38.8068 50.0005 24.9998C50.0005 11.1928 38.8078 0 25.0008 0C11.1938 0 0.000976562 11.1928 0.000976562 24.9998C0.000976562 38.8068 11.1938 49.9996 25.0008 49.9996Z" fill="#734C36"/>
<path d="M40.313 17.9665C39.2416 18.4416 38.0892 18.7629 36.8806 18.9064C38.1146 18.1671 39.0616 16.9972 39.5086 15.601C38.3539 16.286 37.0745 16.7829 35.7139 17.0507C34.6239 15.8898 33.0708 15.1643 31.3511 15.1643C28.0515 15.1643 25.3754 17.8404 25.3754 21.14C25.3754 21.6083 25.4284 22.0642 25.5309 22.5018C20.5647 22.2527 16.1613 19.8739 13.2138 16.2575C12.6995 17.1398 12.4045 18.1671 12.4045 19.262C12.4045 21.3347 13.4602 23.1645 15.0627 24.2358C14.0837 24.2051 13.1616 23.9364 12.3563 23.4876C12.3559 23.513 12.3559 23.5384 12.3559 23.5634C12.3559 26.4587 14.4166 28.8737 17.1497 29.4223C16.6488 29.5595 16.1198 29.6322 15.5757 29.6322C15.1898 29.6322 14.8159 29.5952 14.4513 29.5257C15.2116 31.8992 17.418 33.6269 20.0335 33.6755C17.988 35.2785 15.4117 36.2335 12.6112 36.2335C12.13 36.2335 11.6531 36.2054 11.1865 36.1497C13.8296 37.8458 16.9714 38.8347 20.3459 38.8347C31.3372 38.8347 37.3481 29.7293 37.3481 21.832C37.3481 21.5731 37.3423 21.3151 37.3307 21.0593C38.4992 20.217 39.5122 19.1649 40.313 17.9665Z" fill="#E8D1B5"/>
</g>
<defs>
<clipPath id="clip0_57_157">
<rect width="50" height="50" fill="white"/>
</clipPath>
</defs>
</svg>
