<svg width="50" height="50" viewBox="0 0 50 50" fill="none" xmlns="http://www.w3.org/2000/svg">
<g clip-path="url(#clip0_57_177)">
<path d="M25.0001 50.0001C38.8072 50.0001 50.0001 38.8072 50.0001 25.0001C50.0001 11.1929 38.8072 0 25.0001 0C11.1929 0 0 11.1929 0 25.0001C0 38.8072 11.1929 50.0001 25.0001 50.0001Z" fill="#734C36"/>
<path d="M38.0831 20.1758C38.0831 18.08 36.3852 16.3813 34.2906 16.3813H16.4977C14.4036 16.3813 12.7061 18.0804 12.7061 20.1758V30.3507C12.7061 32.4465 14.4039 34.1451 16.4977 34.1451H34.2903C36.3853 34.1451 38.0827 32.446 38.0827 30.3507V20.1758H38.0831ZM22.8561 29.5556V19.999L30.1034 24.7775L22.8561 29.5556Z" fill="#E8D1B5"/>
</g>
<defs>
<clipPath id="clip0_57_177">
<rect width="50" height="50" fill="white"/>
</clipPath>
</defs>
</svg>
